<?xml version="1.0" standalone="no"?>
<!DOCTYPE svg PUBLIC "-//W3C//DTD SVG 20010904//EN"
 "http://www.w3.org/TR/2001/REC-SVG-20010904/DTD/svg10.dtd">
<svg version="1.0" xmlns="http://www.w3.org/2000/svg"
 width="512.000000pt" height="512.000000pt" viewBox="0 0 512.000000 512.000000"
 preserveAspectRatio="xMidYMid meet">

<g transform="translate(0.000000,512.000000) scale(0.100000,-0.100000)"
fill="#000000" stroke="none">
<path d="M1156 4784 c-190 -46 -356 -215 -395 -402 -16 -75 -16 -3569 0 -3644
40 -189 206 -357 400 -403 96 -22 2702 -22 2798 0 194 46 360 214 400 403 8
37 11 461 11 1420 0 1507 3 1420 -62 1546 -26 50 -110 140 -482 514 -248 249
-474 469 -502 488 -28 20 -82 48 -120 62 l-69 27 -960 2 c-804 1 -970 -1
-1019 -13z m1724 -596 c0 -450 4 -480 66 -599 68 -128 213 -239 352 -268 34
-7 201 -11 458 -11 l404 0 -2 -1267 -3 -1268 -24 -52 c-28 -62 -103 -136 -169
-166 l-47 -22 -1355 0 -1355 0 -47 22 c-66 30 -141 104 -169 166 l-24 52 0
1780 c0 1727 1 1781 19 1829 21 56 80 124 134 158 75 46 81 47 945 47 l817 1
0 -402z m293 361 c56 -28 917 -888 945 -944 11 -22 23 -50 27 -63 l7 -23 -409
3 -408 3 -57 28 c-69 34 -139 109 -164 175 -16 42 -19 92 -22 445 l-3 397 21
0 c11 0 40 -9 63 -21z"/>
<path d="M2485 3299 c-250 -32 -455 -262 -455 -512 0 -51 4 -62 29 -88 41 -40
98 -41 142 -1 28 25 33 38 40 97 15 122 75 211 181 267 36 19 58 23 138 23 80
0 102 -4 138 -23 66 -35 119 -88 149 -150 l28 -57 3 -252 3 -252 -508 -3 -508
-3 -45 -25 c-24 -14 -58 -45 -75 -68 l-30 -44 0 -502 0 -502 25 -37 c14 -21
43 -50 65 -65 l40 -27 703 -3 704 -2 50 27 c37 20 58 41 79 78 l29 50 -2 492
-3 491 -30 44 c-45 64 -99 89 -201 96 l-84 5 0 246 c0 186 -4 261 -15 304 -69
264 -318 432 -590 396z"/>
</g>
</svg>
